<svg width="800" height="800" viewBox="0 0 800 800" fill="none" xmlns="http://www.w3.org/2000/svg">
<rect x="12.5" y="12.5" width="775" height="775" rx="187.5" fill="url(#paint0_linear_10795_2)"/>
<rect x="12.5" y="12.5" width="775" height="775" rx="187.5" fill="url(#paint1_radial_10795_2)" fill-opacity="0.5"/>
<rect x="12.5" y="12.5" width="775" height="775" rx="187.5" stroke="#2B2B2B" stroke-width="25"/>
<path d="M266.662 433.332C263.509 433.343 260.416 432.458 257.745 430.782C255.074 429.105 252.933 426.705 251.572 423.86C250.21 421.015 249.684 417.842 250.054 414.71C250.424 411.577 251.675 408.615 253.662 406.165L418.662 236.165C419.9 234.737 421.587 233.771 423.445 233.428C425.304 233.084 427.225 233.382 428.891 234.274C430.558 235.165 431.872 236.597 432.618 238.334C433.364 240.071 433.497 242.009 432.996 243.832L400.996 344.165C400.052 346.691 399.735 349.407 400.072 352.082C400.409 354.757 401.39 357.31 402.931 359.522C404.471 361.735 406.525 363.541 408.917 364.785C411.309 366.029 413.967 366.674 416.662 366.665H533.329C536.483 366.655 539.575 367.539 542.247 369.216C544.918 370.892 547.059 373.293 548.42 376.138C549.781 378.983 550.308 382.156 549.937 385.288C549.567 388.42 548.316 391.383 546.329 393.832L381.329 563.832C380.091 565.261 378.405 566.226 376.546 566.57C374.687 566.913 372.767 566.615 371.1 565.724C369.434 564.832 368.119 563.4 367.374 561.663C366.628 559.927 366.495 557.988 366.996 556.165L398.996 455.832C399.939 453.307 400.256 450.59 399.919 447.915C399.582 445.24 398.601 442.687 397.061 440.475C395.52 438.262 393.466 436.457 391.075 435.213C388.683 433.969 386.025 433.323 383.329 433.332H266.662Z" fill="white"/>
<defs>
<linearGradient id="paint0_linear_10795_2" x1="400" y1="0" x2="400" y2="800" gradientUnits="userSpaceOnUse">
<stop stop-color="#0D0D0D"/>
<stop offset="1" stop-color="#2A2A2A"/>
</linearGradient>
<radialGradient id="paint1_radial_10795_2" cx="0" cy="0" r="1" gradientUnits="userSpaceOnUse" gradientTransform="translate(400 393.629) rotate(138.611) scale(533.161)">
<stop stop-color="#0D0D0D"/>
<stop offset="0.456731" stop-color="#4901AA" stop-opacity="0.11"/>
<stop offset="1" stop-color="#752FEF"/>
</radialGradient>
</defs>
</svg>
