<svg width="1440" height="900" viewBox="0 0 1440 900" fill="none" xmlns="http://www.w3.org/2000/svg">
<g clip-path="url(#clip0_10779_4616)">
<g opacity="0.09">
<g filter="url(#filter0_f_10779_4616)">
<ellipse cx="767.097" cy="811.924" rx="598.144" ry="586.673" fill="url(#paint0_radial_10779_4616)"/>
</g>
<g filter="url(#filter1_f_10779_4616)">
<ellipse cx="891.256" cy="811.924" rx="275.515" ry="404.015" fill="#FA12E3"/>
</g>
<g filter="url(#filter2_f_10779_4616)">
<ellipse cx="581.197" cy="837.997" rx="222.539" ry="326.331" fill="#FF1E00" fill-opacity="0.7"/>
</g>
</g>
<g opacity="0.4" clip-path="url(#clip1_10779_4616)">
<g opacity="0.38732">
<path d="M266.367 817.163C266.367 816.82 266.645 816.542 266.988 816.542C267.331 816.542 267.609 816.82 267.609 817.163C267.609 817.506 267.331 817.784 266.988 817.784C266.645 817.784 266.367 817.506 266.367 817.163Z" fill="white" fill-opacity="0.4"/>
</g>
<g opacity="0.240825">
<path d="M548.588 436.644C548.588 436.005 549.105 435.488 549.744 435.488C550.382 435.488 550.9 436.005 550.9 436.644C550.9 437.282 550.382 437.8 549.744 437.8C549.105 437.8 548.588 437.282 548.588 436.644Z" fill="white" fill-opacity="0.4"/>
</g>
<g opacity="0.951555">
<path d="M1061.49 564.42C1061.49 563.559 1062.19 562.861 1063.05 562.861C1063.91 562.861 1064.61 563.559 1064.61 564.42C1064.61 565.282 1063.91 565.98 1063.05 565.98C1062.19 565.98 1061.49 565.282 1061.49 564.42Z" fill="white" fill-opacity="0.4"/>
</g>
<g opacity="0.420087">
<path d="M951.549 808.089C951.549 807.718 951.85 807.418 952.22 807.418C952.591 807.418 952.891 807.718 952.891 808.089C952.891 808.459 952.591 808.76 952.22 808.76C951.85 808.76 951.549 808.459 951.549 808.089Z" fill="white" fill-opacity="0.4"/>
</g>
<g opacity="0.391017">
<path d="M1206.72 659.227C1206.72 658.86 1207.01 658.563 1207.38 658.563C1207.75 658.563 1208.04 658.86 1208.04 659.227C1208.04 659.593 1207.75 659.89 1207.38 659.89C1207.01 659.89 1206.72 659.593 1206.72 659.227Z" fill="white" fill-opacity="0.4"/>
</g>
<g opacity="0.840293">
<path d="M1017.11 378.352C1017.11 377.448 1017.84 376.715 1018.74 376.715C1019.65 376.715 1020.38 377.448 1020.38 378.352C1020.38 379.256 1019.65 379.989 1018.74 379.989C1017.84 379.989 1017.11 379.256 1017.11 378.352Z" fill="white" fill-opacity="0.4"/>
</g>
<g opacity="0.737163">
<path d="M457.172 819.827C457.172 819.035 457.814 818.393 458.606 818.393C459.398 818.393 460.04 819.035 460.04 819.827C460.04 820.619 459.398 821.261 458.606 821.261C457.814 821.261 457.172 820.619 457.172 819.827Z" fill="white" fill-opacity="0.4"/>
</g>
<g opacity="0.795091">
<path d="M711.497 833.997C711.497 833.189 712.152 832.534 712.96 832.534C713.767 832.534 714.422 833.189 714.422 833.997C714.422 834.805 713.767 835.46 712.96 835.46C712.152 835.46 711.497 834.805 711.497 833.997Z" fill="white" fill-opacity="0.4"/>
</g>
<g opacity="0.544772">
<path d="M329.396 274.683C329.396 274.32 329.69 274.026 330.053 274.026C330.415 274.026 330.709 274.32 330.709 274.683C330.709 275.045 330.415 275.339 330.053 275.339C329.69 275.339 329.396 275.045 329.396 274.683Z" fill="white" fill-opacity="0.4"/>
</g>
<g opacity="0.665577">
<path d="M852.85 368.232C852.85 367.791 853.208 367.433 853.649 367.433C854.091 367.433 854.449 367.791 854.449 368.232C854.449 368.674 854.091 369.032 853.649 369.032C853.208 369.032 852.85 368.674 852.85 368.232Z" fill="white" fill-opacity="0.4"/>
</g>
<g opacity="0.241151">
<path d="M350.991 862.237C350.991 861.917 351.251 861.658 351.571 861.658C351.891 861.658 352.15 861.917 352.15 862.237C352.15 862.557 351.891 862.817 351.571 862.817C351.251 862.817 350.991 862.557 350.991 862.237Z" fill="white" fill-opacity="0.4"/>
</g>
<g opacity="0.766063">
<path d="M659.1 744.688C659.1 744.233 659.468 743.865 659.923 743.865C660.377 743.865 660.746 744.233 660.746 744.688C660.746 745.143 660.377 745.511 659.923 745.511C659.468 745.511 659.1 745.143 659.1 744.688Z" fill="white" fill-opacity="0.4"/>
</g>
<g opacity="0.338256">
<path d="M807.469 890.941C807.469 890.59 807.753 890.306 808.103 890.306C808.454 890.306 808.738 890.59 808.738 890.941C808.738 891.291 808.454 891.575 808.103 891.575C807.753 891.575 807.469 891.291 807.469 890.941Z" fill="white" fill-opacity="0.4"/>
</g>
<g opacity="0.63261">
<path d="M246.331 759.292C246.331 758.861 246.68 758.512 247.11 758.512C247.541 758.512 247.89 758.861 247.89 759.292C247.89 759.722 247.541 760.071 247.11 760.071C246.68 760.071 246.331 759.722 246.331 759.292Z" fill="white" fill-opacity="0.4"/>
</g>
<g opacity="0.270713">
<path d="M257.114 506.466C257.114 506.137 257.381 505.87 257.71 505.87C258.039 505.87 258.306 506.137 258.306 506.466C258.306 506.795 258.039 507.062 257.71 507.062C257.381 507.062 257.114 506.795 257.114 506.466Z" fill="white" fill-opacity="0.4"/>
</g>
<g opacity="0.569419">
<path d="M241.793 855.859C241.793 855.439 242.134 855.098 242.555 855.098C242.975 855.098 243.316 855.439 243.316 855.859C243.316 856.28 242.975 856.621 242.555 856.621C242.134 856.621 241.793 856.28 241.793 855.859Z" fill="white" fill-opacity="0.4"/>
</g>
<g opacity="0.858105">
<path d="M39.0811 215.062C39.0811 214.224 39.7606 213.544 40.5989 213.544C41.4372 213.544 42.1167 214.224 42.1167 215.062C42.1167 215.901 41.4372 216.58 40.5989 216.58C39.7606 216.58 39.0811 215.901 39.0811 215.062Z" fill="white" fill-opacity="0.4"/>
</g>
<g opacity="0.554463">
<path d="M1224.45 277.42C1224.45 276.585 1225.13 275.908 1225.96 275.908C1226.8 275.908 1227.47 276.585 1227.47 277.42C1227.47 278.256 1226.8 278.933 1225.96 278.933C1225.13 278.933 1224.45 278.256 1224.45 277.42Z" fill="white" fill-opacity="0.4"/>
</g>
<g opacity="0.608775">
<path d="M771.304 185.587C771.304 185.212 771.608 184.908 771.983 184.908C772.358 184.908 772.661 185.212 772.661 185.587C772.661 185.962 772.358 186.266 771.983 186.266C771.608 186.266 771.304 185.962 771.304 185.587Z" fill="white" fill-opacity="0.4"/>
</g>
<g opacity="0.390968">
<path d="M827.527 472.349C827.527 471.988 827.82 471.696 828.181 471.696C828.542 471.696 828.835 471.988 828.835 472.349C828.835 472.71 828.542 473.003 828.181 473.003C827.82 473.003 827.527 472.71 827.527 472.349Z" fill="white" fill-opacity="0.4"/>
</g>
<g opacity="0.762661">
<path d="M256.786 803.893C256.786 803.439 257.154 803.07 257.609 803.07C258.064 803.07 258.433 803.439 258.433 803.893C258.433 804.348 258.064 804.717 257.609 804.717C257.154 804.717 256.786 804.348 256.786 803.893Z" fill="white" fill-opacity="0.4"/>
</g>
<g opacity="0.365604">
<path d="M594.923 595.78C594.923 595.063 595.505 594.481 596.223 594.481C596.94 594.481 597.522 595.063 597.522 595.78C597.522 596.498 596.94 597.08 596.223 597.08C595.505 597.08 594.923 596.498 594.923 595.78Z" fill="white" fill-opacity="0.4"/>
</g>
<g opacity="0.62514">
<path d="M347.913 232.513C347.913 231.641 348.619 230.935 349.49 230.935C350.361 230.935 351.068 231.641 351.068 232.513C351.068 233.384 350.361 234.09 349.49 234.09C348.619 234.09 347.913 233.384 347.913 232.513Z" fill="white" fill-opacity="0.4"/>
</g>
<g opacity="0.837037">
<path d="M683.467 686.762C683.467 686.352 683.799 686.02 684.21 686.02C684.62 686.02 684.953 686.352 684.953 686.762C684.953 687.173 684.62 687.505 684.21 687.505C683.799 687.505 683.467 687.173 683.467 686.762Z" fill="white" fill-opacity="0.4"/>
</g>
<g opacity="0.884447">
<path d="M291.033 40.4326C291.033 39.5403 291.757 38.8169 292.649 38.8169C293.541 38.8169 294.265 39.5403 294.265 40.4326C294.265 41.3249 293.541 42.0482 292.649 42.0482C291.757 42.0482 291.033 41.3249 291.033 40.4326Z" fill="white" fill-opacity="0.4"/>
</g>
<g opacity="0.674399">
<path d="M637.667 526.306C637.667 525.418 638.387 524.698 639.275 524.698C640.163 524.698 640.883 525.418 640.883 526.306C640.883 527.194 640.163 527.913 639.275 527.913C638.387 527.913 637.667 527.194 637.667 526.306Z" fill="white" fill-opacity="0.4"/>
</g>
<g opacity="0.716139">
<path d="M1433.15 41.7482C1433.15 41.292 1433.52 40.9221 1433.98 40.9221C1434.43 40.9221 1434.8 41.292 1434.8 41.7482C1434.8 42.2044 1434.43 42.5743 1433.98 42.5743C1433.52 42.5743 1433.15 42.2044 1433.15 41.7482Z" fill="white" fill-opacity="0.4"/>
</g>
<g opacity="0.966738">
<path d="M464.528 537.303C464.528 536.873 464.876 536.525 465.305 536.525C465.735 536.525 466.083 536.873 466.083 537.303C466.083 537.732 465.735 538.08 465.305 538.08C464.876 538.08 464.528 537.732 464.528 537.303Z" fill="white" fill-opacity="0.4"/>
</g>
<g opacity="0.756956">
<path d="M1308.3 83.4819C1308.3 82.5718 1309.04 81.834 1309.95 81.834C1310.86 81.834 1311.6 82.5718 1311.6 83.4819C1311.6 84.392 1310.86 85.1298 1309.95 85.1298C1309.04 85.1298 1308.3 84.392 1308.3 83.4819Z" fill="white" fill-opacity="0.4"/>
</g>
<g opacity="0.37555">
<path d="M359.307 80.516C359.307 80.1542 359.6 79.8608 359.962 79.8608C360.324 79.8608 360.617 80.1542 360.617 80.516C360.617 80.8778 360.324 81.1712 359.962 81.1712C359.6 81.1712 359.307 80.8778 359.307 80.516Z" fill="white" fill-opacity="0.4"/>
</g>
<g opacity="0.401022">
<path d="M1177.56 728.253C1177.56 727.888 1177.85 727.593 1178.22 727.593C1178.58 727.593 1178.88 727.888 1178.88 728.253C1178.88 728.618 1178.58 728.914 1178.22 728.914C1177.85 728.914 1177.56 728.618 1177.56 728.253Z" fill="white" fill-opacity="0.4"/>
</g>
<g opacity="0.39334">
<path d="M929.083 142.427C929.083 141.688 929.682 141.089 930.421 141.089C931.16 141.089 931.759 141.688 931.759 142.427C931.759 143.166 931.16 143.766 930.421 143.766C929.682 143.766 929.083 143.166 929.083 142.427Z" fill="white" fill-opacity="0.4"/>
</g>
<g opacity="0.274921">
<path d="M1113.3 475.746C1113.3 475.091 1113.83 474.56 1114.49 474.56C1115.14 474.56 1115.67 475.091 1115.67 475.746C1115.67 476.4 1115.14 476.931 1114.49 476.931C1113.83 476.931 1113.3 476.4 1113.3 475.746Z" fill="white" fill-opacity="0.4"/>
</g>
<g opacity="0.682307">
<path d="M1322.57 510.85C1322.57 510.463 1322.88 510.149 1323.27 510.149C1323.66 510.149 1323.97 510.463 1323.97 510.85C1323.97 511.237 1323.66 511.551 1323.27 511.551C1322.88 511.551 1322.57 511.237 1322.57 510.85Z" fill="white" fill-opacity="0.4"/>
</g>
<g opacity="0.941339">
<path d="M169.481 405.922C169.481 405.482 169.838 405.125 170.279 405.125C170.719 405.125 171.076 405.482 171.076 405.922C171.076 406.363 170.719 406.72 170.279 406.72C169.838 406.72 169.481 406.363 169.481 405.922Z" fill="white" fill-opacity="0.4"/>
</g>
<g opacity="0.857141">
<path d="M2.84326 86.0307C2.84326 85.1298 3.57361 84.3994 4.47454 84.3994C5.37546 84.3994 6.10581 85.1298 6.10581 86.0307C6.10581 86.9316 5.37546 87.662 4.47454 87.662C3.57361 87.662 2.84326 86.9316 2.84326 86.0307Z" fill="white" fill-opacity="0.4"/>
</g>
<g opacity="0.513745">
<path d="M917.946 618.585C917.946 617.79 918.591 617.145 919.387 617.145C920.182 617.145 920.827 617.79 920.827 618.585C920.827 619.381 920.182 620.026 919.387 620.026C918.591 620.026 917.946 619.381 917.946 618.585Z" fill="white" fill-opacity="0.4"/>
</g>
<g opacity="0.833305">
<path d="M77.9087 289.495C77.9087 289.086 78.2408 288.753 78.6505 288.753C79.0601 288.753 79.3923 289.086 79.3923 289.495C79.3923 289.905 79.0601 290.237 78.6505 290.237C78.2408 290.237 77.9087 289.905 77.9087 289.495Z" fill="white" fill-opacity="0.4"/>
</g>
<g opacity="0.477884">
<path d="M81.4219 879.696C81.4219 878.911 82.0582 878.275 82.8432 878.275C83.6282 878.275 84.2646 878.911 84.2646 879.696C84.2646 880.481 83.6282 881.118 82.8432 881.118C82.0582 881.118 81.4219 880.481 81.4219 879.696Z" fill="white" fill-opacity="0.4"/>
</g>
<g opacity="0.884902">
<path d="M1106.39 252.707C1106.39 251.871 1107.06 251.192 1107.9 251.192C1108.74 251.192 1109.41 251.871 1109.41 252.707C1109.41 253.544 1108.74 254.222 1107.9 254.222C1107.06 254.222 1106.39 253.544 1106.39 252.707Z" fill="white" fill-opacity="0.4"/>
</g>
<g opacity="0.384793">
<path d="M63.3833 755.697C63.3833 754.978 63.9656 754.396 64.6839 754.396C65.4021 754.396 65.9844 754.978 65.9844 755.697C65.9844 756.415 65.4021 756.997 64.6839 756.997C63.9656 756.997 63.3833 756.415 63.3833 755.697Z" fill="white" fill-opacity="0.4"/>
</g>
<g opacity="0.21342">
<path d="M553.001 181.328C553.001 180.709 553.503 180.207 554.123 180.207C554.742 180.207 555.244 180.709 555.244 181.328C555.244 181.948 554.742 182.45 554.123 182.45C553.503 182.45 553.001 181.948 553.001 181.328Z" fill="white" fill-opacity="0.4"/>
</g>
<g opacity="0.88639">
<path d="M534.545 34.6688C534.545 33.8226 535.231 33.1367 536.077 33.1367C536.923 33.1367 537.609 33.8226 537.609 34.6688C537.609 35.5149 536.923 36.2008 536.077 36.2008C535.231 36.2008 534.545 35.5149 534.545 34.6688Z" fill="white" fill-opacity="0.4"/>
</g>
<g opacity="0.201288">
<path d="M177.527 341.925C177.527 341.315 178.022 340.82 178.632 340.82C179.242 340.82 179.737 341.315 179.737 341.925C179.737 342.535 179.242 343.03 178.632 343.03C178.022 343.03 177.527 342.535 177.527 341.925Z" fill="white" fill-opacity="0.4"/>
</g>
<g opacity="0.202433">
<path d="M286.063 462.632C286.063 462.02 286.559 461.524 287.17 461.524C287.782 461.524 288.277 462.02 288.277 462.632C288.277 463.243 287.782 463.739 287.17 463.739C286.559 463.739 286.063 463.243 286.063 462.632Z" fill="white" fill-opacity="0.4"/>
</g>
<g opacity="0.67519">
<path d="M1373.9 374.696C1373.9 373.795 1374.63 373.065 1375.53 373.065C1376.43 373.065 1377.16 373.795 1377.16 374.696C1377.16 375.597 1376.43 376.327 1375.53 376.327C1374.63 376.327 1373.9 375.597 1373.9 374.696Z" fill="white" fill-opacity="0.4"/>
</g>
<g opacity="0.219621">
<path d="M616.952 180.361C616.952 179.741 617.454 179.238 618.074 179.238C618.694 179.238 619.197 179.741 619.197 180.361C619.197 180.981 618.694 181.484 618.074 181.484C617.454 181.484 616.952 180.981 616.952 180.361Z" fill="white" fill-opacity="0.4"/>
</g>
<g opacity="0.228339">
<path d="M205.458 535.324C205.458 534.693 205.97 534.181 206.601 534.181C207.232 534.181 207.743 534.693 207.743 535.324C207.743 535.955 207.232 536.467 206.601 536.467C205.97 536.467 205.458 535.955 205.458 535.324Z" fill="white" fill-opacity="0.4"/>
</g>
<g opacity="0.308282">
<path d="M1008.75 297.928C1008.75 297.246 1009.31 296.693 1009.99 296.693C1010.67 296.693 1011.23 297.246 1011.23 297.928C1011.23 298.611 1010.67 299.164 1009.99 299.164C1009.31 299.164 1008.75 298.611 1008.75 297.928Z" fill="white" fill-opacity="0.4"/>
</g>
<g opacity="0.380614">
<path d="M1127.86 368.309C1127.86 367.976 1128.13 367.706 1128.46 367.706C1128.79 367.706 1129.06 367.976 1129.06 368.309C1129.06 368.643 1128.79 368.913 1128.46 368.913C1128.13 368.913 1127.86 368.643 1127.86 368.309Z" fill="white" fill-opacity="0.4"/>
</g>
<g opacity="0.594449">
<path d="M655.526 580.285C655.526 579.907 655.833 579.6 656.211 579.6C656.59 579.6 656.897 579.907 656.897 580.285C656.897 580.664 656.59 580.971 656.211 580.971C655.833 580.971 655.526 580.664 655.526 580.285Z" fill="white" fill-opacity="0.4"/>
</g>
<g opacity="0.692235">
<path d="M1109.21 502.79C1109.21 502.013 1109.84 501.382 1110.62 501.382C1111.39 501.382 1112.02 502.013 1112.02 502.79C1112.02 503.568 1111.39 504.198 1110.62 504.198C1109.84 504.198 1109.21 503.568 1109.21 502.79Z" fill="white" fill-opacity="0.4"/>
</g>
<g opacity="0.204277">
<path d="M819.324 516.714C819.324 516.1 819.821 515.603 820.435 515.603C821.048 515.603 821.546 516.1 821.546 516.714C821.546 517.327 821.048 517.825 820.435 517.825C819.821 517.825 819.324 517.327 819.324 516.714Z" fill="white" fill-opacity="0.4"/>
</g>
<g opacity="0.349206">
<path d="M186.477 280.743C186.477 280.033 187.052 279.458 187.762 279.458C188.472 279.458 189.047 280.033 189.047 280.743C189.047 281.453 188.472 282.028 187.762 282.028C187.052 282.028 186.477 281.453 186.477 280.743Z" fill="white" fill-opacity="0.4"/>
</g>
<g opacity="0.894248">
<path d="M672.885 889.378C672.885 888.541 673.564 887.862 674.401 887.862C675.238 887.862 675.917 888.541 675.917 889.378C675.917 890.216 675.238 890.894 674.401 890.894C673.564 890.894 672.885 890.216 672.885 889.378Z" fill="white" fill-opacity="0.4"/>
</g>
<g opacity="0.399363">
<path d="M1045.43 265.259C1045.43 264.89 1045.73 264.591 1046.1 264.591C1046.47 264.591 1046.77 264.89 1046.77 265.259C1046.77 265.628 1046.47 265.927 1046.1 265.927C1045.73 265.927 1045.43 265.628 1045.43 265.259Z" fill="white" fill-opacity="0.4"/>
</g>
<g opacity="0.875676">
<path d="M1140.24 766.425C1140.24 765.531 1140.96 764.807 1141.86 764.807C1142.75 764.807 1143.48 765.531 1143.48 766.425C1143.48 767.319 1142.75 768.043 1141.86 768.043C1140.96 768.043 1140.24 767.319 1140.24 766.425Z" fill="white" fill-opacity="0.4"/>
</g>
<g opacity="0.688735">
<path d="M390.22 65.5854C390.22 64.8091 390.85 64.1797 391.626 64.1797C392.402 64.1797 393.032 64.8091 393.032 65.5854C393.032 66.3618 392.402 66.9911 391.626 66.9911C390.85 66.9911 390.22 66.3618 390.22 65.5854Z" fill="white" fill-opacity="0.4"/>
</g>
<g opacity="0.222881">
<path d="M1384.64 464.072C1384.64 463.446 1385.15 462.938 1385.78 462.938C1386.4 462.938 1386.91 463.446 1386.91 464.072C1386.91 464.698 1386.4 465.206 1385.78 465.206C1385.15 465.206 1384.64 464.698 1384.64 464.072Z" fill="white" fill-opacity="0.4"/>
</g>
<g opacity="0.490546">
<path d="M650.392 89.0272C650.392 88.2451 651.026 87.6111 651.808 87.6111C652.59 87.6111 653.224 88.2451 653.224 89.0272C653.224 89.8093 652.59 90.4434 651.808 90.4434C651.026 90.4434 650.392 89.8093 650.392 89.0272Z" fill="white" fill-opacity="0.4"/>
</g>
<g opacity="0.510728">
<path d="M106.368 39.6136C106.368 38.8042 107.024 38.1479 107.834 38.1479C108.643 38.1479 109.3 38.8042 109.3 39.6136C109.3 40.4231 108.643 41.0793 107.834 41.0793C107.024 41.0793 106.368 40.4231 106.368 39.6136Z" fill="white" fill-opacity="0.4"/>
</g>
<g opacity="0.712931">
<path d="M1135.52 641.446C1135.52 641.055 1135.84 640.738 1136.23 640.738C1136.62 640.738 1136.94 641.055 1136.94 641.446C1136.94 641.837 1136.62 642.154 1136.23 642.154C1135.84 642.154 1135.52 641.837 1135.52 641.446Z" fill="white" fill-opacity="0.4"/>
</g>
<g opacity="0.634312">
<path d="M391.231 856.345C391.231 855.906 391.587 855.551 392.025 855.551C392.463 855.551 392.819 855.906 392.819 856.345C392.819 856.783 392.463 857.138 392.025 857.138C391.587 857.138 391.231 856.783 391.231 856.345Z" fill="white" fill-opacity="0.4"/>
</g>
<g opacity="0.50377">
<path d="M995.01 271.63C995.01 270.917 995.588 270.338 996.302 270.338C997.015 270.338 997.594 270.917 997.594 271.63C997.594 272.344 997.015 272.922 996.302 272.922C995.588 272.922 995.01 272.344 995.01 271.63Z" fill="white" fill-opacity="0.4"/>
</g>
<g opacity="0.490562">
<path d="M552.762 32.2182C552.762 31.8219 553.083 31.5007 553.48 31.5007C553.876 31.5007 554.197 31.8219 554.197 32.2182C554.197 32.6144 553.876 32.9356 553.48 32.9356C553.083 32.9356 552.762 32.6144 552.762 32.2182Z" fill="white" fill-opacity="0.4"/>
</g>
<g opacity="0.239774">
<path d="M533.7 140.619C533.7 139.98 534.218 139.462 534.858 139.462C535.497 139.462 536.015 139.98 536.015 140.619C536.015 141.258 535.497 141.776 534.858 141.776C534.218 141.776 533.7 141.258 533.7 140.619Z" fill="white" fill-opacity="0.4"/>
</g>
<g opacity="0.469472">
<path d="M1262.53 779.397C1262.53 778.614 1263.16 777.98 1263.95 777.98C1264.73 777.98 1265.36 778.614 1265.36 779.397C1265.36 780.179 1264.73 780.813 1263.95 780.813C1263.16 780.813 1262.53 780.179 1262.53 779.397Z" fill="white" fill-opacity="0.4"/>
</g>
<g opacity="0.493535">
<path d="M151.981 560.339C151.981 559.545 152.625 558.901 153.419 558.901C154.213 558.901 154.857 559.545 154.857 560.339C154.857 561.133 154.213 561.777 153.419 561.777C152.625 561.777 151.981 561.133 151.981 560.339Z" fill="white" fill-opacity="0.4"/>
</g>
<g opacity="0.613553">
<path d="M1020.38 53.4052C1020.38 52.5407 1021.08 51.8398 1021.94 51.8398C1022.81 51.8398 1023.51 52.5407 1023.51 53.4052C1023.51 54.2697 1022.81 54.9705 1021.94 54.9705C1021.08 54.9705 1020.38 54.2697 1020.38 53.4052Z" fill="white" fill-opacity="0.4"/>
</g>
<g opacity="0.220344">
<path d="M1425.35 232.889C1425.35 232.576 1425.6 232.322 1425.92 232.322C1426.23 232.322 1426.48 232.576 1426.48 232.889C1426.48 233.203 1426.23 233.457 1425.92 233.457C1425.6 233.457 1425.35 233.203 1425.35 232.889Z" fill="white" fill-opacity="0.4"/>
</g>
<g opacity="0.425782">
<path d="M524.003 819.141C524.003 818.798 524.281 818.52 524.624 818.52C524.967 818.52 525.245 818.798 525.245 819.141C525.245 819.484 524.967 819.762 524.624 819.762C524.281 819.762 524.003 819.484 524.003 819.141Z" fill="white" fill-opacity="0.4"/>
</g>
<g opacity="0.618965">
<path d="M464.917 377.521C464.917 377.093 465.264 376.746 465.692 376.746C466.12 376.746 466.467 377.093 466.467 377.521C466.467 377.949 466.12 378.296 465.692 378.296C465.264 378.296 464.917 377.949 464.917 377.521Z" fill="white" fill-opacity="0.4"/>
</g>
<g opacity="0.284156">
<path d="M1222.96 336.304C1222.96 335.67 1223.48 335.156 1224.11 335.156C1224.75 335.156 1225.26 335.67 1225.26 336.304C1225.26 336.938 1224.75 337.452 1224.11 337.452C1223.48 337.452 1222.96 336.938 1222.96 336.304Z" fill="white" fill-opacity="0.4"/>
</g>
<g opacity="0.356656">
<path d="M1135.59 90.1532C1135.59 89.441 1136.16 88.8635 1136.88 88.8635C1137.59 88.8635 1138.17 89.441 1138.17 90.1532C1138.17 90.8655 1137.59 91.443 1136.88 91.443C1136.16 91.443 1135.59 90.8655 1135.59 90.1532Z" fill="white" fill-opacity="0.4"/>
</g>
<g opacity="0.212711">
<path d="M729.902 286C729.902 285.691 730.153 285.44 730.463 285.44C730.772 285.44 731.023 285.691 731.023 286C731.023 286.309 730.772 286.56 730.463 286.56C730.153 286.56 729.902 286.309 729.902 286Z" fill="white" fill-opacity="0.4"/>
</g>
<g opacity="0.23946">
<path d="M740.227 713.205C740.227 712.572 740.74 712.06 741.372 712.06C742.005 712.06 742.518 712.572 742.518 713.205C742.518 713.838 742.005 714.35 741.372 714.35C740.74 714.35 740.227 713.838 740.227 713.205Z" fill="white" fill-opacity="0.4"/>
</g>
<g opacity="0.453582">
<path d="M1182.5 366.407C1182.5 366.054 1182.79 365.767 1183.14 365.767C1183.49 365.767 1183.78 366.054 1183.78 366.407C1183.78 366.761 1183.49 367.047 1183.14 367.047C1182.79 367.047 1182.5 366.761 1182.5 366.407Z" fill="white" fill-opacity="0.4"/>
</g>
<g opacity="0.453437">
<path d="M1171.68 584.475C1171.68 584.127 1171.96 583.845 1172.31 583.845C1172.66 583.845 1172.94 584.127 1172.94 584.475C1172.94 584.823 1172.66 585.105 1172.31 585.105C1171.96 585.105 1171.68 584.823 1171.68 584.475Z" fill="white" fill-opacity="0.4"/>
</g>
<g opacity="0.623351">
<path d="M792.718 465.165C792.718 464.729 793.071 464.377 793.506 464.377C793.941 464.377 794.294 464.729 794.294 465.165C794.294 465.6 793.941 465.952 793.506 465.952C793.071 465.952 792.718 465.6 792.718 465.165Z" fill="white" fill-opacity="0.4"/>
</g>
<g opacity="0.239152">
<path d="M1226.19 153.039C1226.19 152.4 1226.7 151.882 1227.34 151.882C1227.98 151.882 1228.5 152.4 1228.5 153.039C1228.5 153.678 1227.98 154.195 1227.34 154.195C1226.7 154.195 1226.19 153.678 1226.19 153.039Z" fill="white" fill-opacity="0.4"/>
</g>
<g opacity="0.494818">
<path d="M544.133 799.033C544.133 798.633 544.457 798.309 544.857 798.309C545.257 798.309 545.581 798.633 545.581 799.033C545.581 799.433 545.257 799.757 544.857 799.757C544.457 799.757 544.133 799.433 544.133 799.033Z" fill="white" fill-opacity="0.4"/>
</g>
<g opacity="0.968932">
<path d="M1328.82 185.26C1328.82 184.394 1329.53 183.692 1330.39 183.692C1331.26 183.692 1331.96 184.394 1331.96 185.26C1331.96 186.126 1331.26 186.827 1330.39 186.827C1329.53 186.827 1328.82 186.126 1328.82 185.26Z" fill="white" fill-opacity="0.4"/>
</g>
<g opacity="0.904297">
<path d="M47.5781 355.267C47.5781 354.842 47.9223 354.498 48.3469 354.498C48.7714 354.498 49.1156 354.842 49.1156 355.267C49.1156 355.692 48.7714 356.036 48.3469 356.036C47.9223 356.036 47.5781 355.692 47.5781 355.267Z" fill="white" fill-opacity="0.4"/>
</g>
<g opacity="0.219375">
<path d="M894.496 813.053C894.496 812.429 895.001 811.924 895.625 811.924C896.249 811.924 896.754 812.429 896.754 813.053C896.754 813.677 896.249 814.182 895.625 814.182C895.001 814.182 894.496 813.677 894.496 813.053Z" fill="white" fill-opacity="0.4"/>
</g>
<g opacity="0.924548">
<path d="M72.8633 250.722C72.8633 249.832 73.5851 249.11 74.4754 249.11C75.3658 249.11 76.0876 249.832 76.0876 250.722C76.0876 251.612 75.3658 252.334 74.4754 252.334C73.5851 252.334 72.8633 251.612 72.8633 250.722Z" fill="white" fill-opacity="0.4"/>
</g>
<g opacity="0.369706">
<path d="M715.343 648.274C715.343 647.912 715.637 647.618 715.999 647.618C716.361 647.618 716.655 647.912 716.655 648.274C716.655 648.637 716.361 648.93 715.999 648.93C715.637 648.93 715.343 648.637 715.343 648.274Z" fill="white" fill-opacity="0.4"/>
</g>
<g opacity="0.635316">
<path d="M1006.44 418.397C1006.44 418.018 1006.75 417.71 1007.13 417.71C1007.51 417.71 1007.81 418.018 1007.81 418.397C1007.81 418.777 1007.51 419.084 1007.13 419.084C1006.75 419.084 1006.44 418.777 1006.44 418.397Z" fill="white" fill-opacity="0.4"/>
</g>
<g opacity="0.20743">
<path d="M1296.74 357.555C1296.74 357.247 1296.99 356.998 1297.29 356.998C1297.6 356.998 1297.85 357.247 1297.85 357.555C1297.85 357.863 1297.6 358.112 1297.29 358.112C1296.99 358.112 1296.74 357.863 1296.74 357.555Z" fill="white" fill-opacity="0.4"/>
</g>
<g opacity="0.395766">
<path d="M804.264 357.325C804.264 356.59 804.86 355.993 805.596 355.993C806.332 355.993 806.929 356.59 806.929 357.325C806.929 358.061 806.332 358.658 805.596 358.658C804.86 358.658 804.264 358.061 804.264 357.325Z" fill="white" fill-opacity="0.4"/>
</g>
<g opacity="0.450412">
<path d="M792.183 427.247C792.183 426.479 792.806 425.856 793.574 425.856C794.343 425.856 794.966 426.479 794.966 427.247C794.966 428.016 794.343 428.639 793.574 428.639C792.806 428.639 792.183 428.016 792.183 427.247Z" fill="white" fill-opacity="0.4"/>
</g>
<g opacity="0.978043">
<path d="M81.7207 279.581C81.7207 278.72 82.419 278.021 83.2805 278.021C84.142 278.021 84.8403 278.72 84.8403 279.581C84.8403 280.443 84.142 281.141 83.2805 281.141C82.419 281.141 81.7207 280.443 81.7207 279.581Z" fill="white" fill-opacity="0.4"/>
</g>
<g opacity="0.428077">
<path d="M58.6494 206.43C58.6494 205.732 59.2152 205.167 59.913 205.167C60.6109 205.167 61.1767 205.732 61.1767 206.43C61.1767 207.128 60.6109 207.694 59.913 207.694C59.2152 207.694 58.6494 207.128 58.6494 206.43Z" fill="white" fill-opacity="0.4"/>
</g>
<g opacity="0.359207">
<path d="M1125.71 281.848C1125.71 281.132 1126.29 280.552 1127.01 280.552C1127.72 280.552 1128.3 281.132 1128.3 281.848C1128.3 282.564 1127.72 283.144 1127.01 283.144C1126.29 283.144 1125.71 282.564 1125.71 281.848Z" fill="white" fill-opacity="0.4"/>
</g>
<g opacity="0.866749">
<path d="M126.79 420.628C126.79 419.733 127.516 419.007 128.411 419.007C129.307 419.007 130.033 419.733 130.033 420.628C130.033 421.524 129.307 422.25 128.411 422.25C127.516 422.25 126.79 421.524 126.79 420.628Z" fill="white" fill-opacity="0.4"/>
</g>
<g opacity="0.905869">
<path d="M967.337 361.692C967.337 361.248 967.697 360.888 968.141 360.888C968.585 360.888 968.945 361.248 968.945 361.692C968.945 362.136 968.585 362.496 968.141 362.496C967.697 362.496 967.337 362.136 967.337 361.692Z" fill="white" fill-opacity="0.4"/>
</g>
<g opacity="0.82892">
<path d="M1023.76 371.257C1023.76 370.355 1024.49 369.624 1025.39 369.624C1026.29 369.624 1027.02 370.355 1027.02 371.257C1027.02 372.159 1026.29 372.889 1025.39 372.889C1024.49 372.889 1023.76 372.159 1023.76 371.257Z" fill="white" fill-opacity="0.4"/>
</g>
<g opacity="0.904937">
<path d="M168.953 690.783C168.953 689.889 169.678 689.165 170.572 689.165C171.466 689.165 172.191 689.889 172.191 690.783C172.191 691.677 171.466 692.402 170.572 692.402C169.678 692.402 168.953 691.677 168.953 690.783Z" fill="white" fill-opacity="0.4"/>
</g>
<g opacity="0.906396">
<path d="M998.426 326.695C998.426 325.845 999.115 325.156 999.964 325.156C1000.81 325.156 1001.5 325.845 1001.5 326.695C1001.5 327.545 1000.81 328.233 999.964 328.233C999.115 328.233 998.426 327.545 998.426 326.695Z" fill="white" fill-opacity="0.4"/>
</g>
<g opacity="0.726408">
<path d="M1419.62 556.693C1419.62 555.781 1420.36 555.041 1421.27 555.041C1422.19 555.041 1422.92 555.781 1422.92 556.693C1422.92 557.606 1422.19 558.346 1421.27 558.346C1420.36 558.346 1419.62 557.606 1419.62 556.693Z" fill="white" fill-opacity="0.4"/>
</g>
<g opacity="0.250335">
<path d="M72.5107 616.028C72.5107 615.712 72.7676 615.455 73.0844 615.455C73.4012 615.455 73.658 615.712 73.658 616.028C73.658 616.345 73.4012 616.602 73.0844 616.602C72.7676 616.602 72.5107 616.345 72.5107 616.028Z" fill="white" fill-opacity="0.4"/>
</g>
<g opacity="0.840258">
<path d="M36.3486 455.582C36.3486 455.171 36.6817 454.838 37.0925 454.838C37.5033 454.838 37.8363 455.171 37.8363 455.582C37.8363 455.993 37.5033 456.326 37.0925 456.326C36.6817 456.326 36.3486 455.993 36.3486 455.582Z" fill="white" fill-opacity="0.4"/>
</g>
<g opacity="0.800295">
<path d="M104.668 672.124C104.668 671.312 105.326 670.655 106.137 670.655C106.949 670.655 107.607 671.312 107.607 672.124C107.607 672.936 106.949 673.594 106.137 673.594C105.326 673.594 104.668 672.936 104.668 672.124Z" fill="white" fill-opacity="0.4"/>
</g>
<g opacity="0.98255">
<path d="M101.815 759.507C101.815 759.072 102.169 758.719 102.604 758.719C103.04 758.719 103.393 759.072 103.393 759.507C103.393 759.943 103.04 760.296 102.604 760.296C102.169 760.296 101.815 759.943 101.815 759.507Z" fill="white" fill-opacity="0.4"/>
</g>
<g opacity="0.739413">
<path d="M43.2104 365.997C43.2104 365.084 43.9503 364.344 44.8628 364.344C45.7754 364.344 46.5152 365.084 46.5152 365.997C46.5152 366.909 45.7754 367.649 44.8628 367.649C43.9503 367.649 43.2104 366.909 43.2104 365.997Z" fill="white" fill-opacity="0.4"/>
</g>
<g opacity="0.55935">
<path d="M846.6 772.783C846.6 771.964 847.263 771.3 848.082 771.3C848.901 771.3 849.565 771.964 849.565 772.783C849.565 773.602 848.901 774.265 848.082 774.265C847.263 774.265 846.6 773.602 846.6 772.783Z" fill="white" fill-opacity="0.4"/>
</g>
<g opacity="0.391295">
<path d="M1200.11 101.409C1200.11 100.673 1200.7 100.077 1201.44 100.077C1202.18 100.077 1202.77 100.673 1202.77 101.409C1202.77 102.144 1202.18 102.74 1201.44 102.74C1200.7 102.74 1200.11 102.144 1200.11 101.409Z" fill="white" fill-opacity="0.4"/>
</g>
<g opacity="0.325637">
<path d="M320.05 618.536C320.05 618.204 320.319 617.935 320.651 617.935C320.983 617.935 321.252 618.204 321.252 618.536C321.252 618.868 320.983 619.137 320.651 619.137C320.319 619.137 320.05 618.868 320.05 618.536Z" fill="white" fill-opacity="0.4"/>
</g>
<g opacity="0.338909">
<path d="M965.323 155.034C965.323 154.333 965.892 153.764 966.593 153.764C967.295 153.764 967.863 154.333 967.863 155.034C967.863 155.735 967.295 156.304 966.593 156.304C965.892 156.304 965.323 155.735 965.323 155.034Z" fill="white" fill-opacity="0.4"/>
</g>
<g opacity="0.318425">
<path d="M893.969 244.376C893.969 243.687 894.527 243.129 895.216 243.129C895.905 243.129 896.463 243.687 896.463 244.376C896.463 245.065 895.905 245.623 895.216 245.623C894.527 245.623 893.969 245.065 893.969 244.376Z" fill="white" fill-opacity="0.4"/>
</g>
<g opacity="0.949693">
<path d="M831.661 828.819C831.661 827.965 832.353 827.272 833.207 827.272C834.062 827.272 834.754 827.965 834.754 828.819C834.754 829.673 834.062 830.366 833.207 830.366C832.353 830.366 831.661 829.673 831.661 828.819Z" fill="white" fill-opacity="0.4"/>
</g>
<g opacity="0.591716">
<path d="M1220.15 875.268C1220.15 874.848 1220.49 874.507 1220.91 874.507C1221.34 874.507 1221.68 874.848 1221.68 875.268C1221.68 875.688 1221.34 876.028 1220.91 876.028C1220.49 876.028 1220.15 875.688 1220.15 875.268Z" fill="white" fill-opacity="0.4"/>
</g>
<g opacity="0.719998">
<path d="M6.04199 353.103C6.04199 352.647 6.4117 352.278 6.86777 352.278C7.32383 352.278 7.69354 352.647 7.69354 353.103C7.69354 353.559 7.32383 353.929 6.86777 353.929C6.4117 353.929 6.04199 353.559 6.04199 353.103Z" fill="white" fill-opacity="0.4"/>
</g>
<g opacity="0.222902">
<path d="M111.499 582.687C111.499 582.374 111.753 582.119 112.066 582.119C112.38 582.119 112.634 582.374 112.634 582.687C112.634 583.001 112.38 583.255 112.066 583.255C111.753 583.255 111.499 583.001 111.499 582.687Z" fill="white" fill-opacity="0.4"/>
</g>
<g opacity="0.547851">
<path d="M830.561 652.593C830.561 651.762 831.235 651.088 832.067 651.088C832.898 651.088 833.572 651.762 833.572 652.593C833.572 653.425 832.898 654.099 832.067 654.099C831.235 654.099 830.561 653.425 830.561 652.593Z" fill="white" fill-opacity="0.4"/>
</g>
<g opacity="0.396774">
<path d="M913.817 278.471C913.817 278.103 914.116 277.804 914.484 277.804C914.853 277.804 915.151 278.103 915.151 278.471C915.151 278.839 914.853 279.138 914.484 279.138C914.116 279.138 913.817 278.839 913.817 278.471Z" fill="white" fill-opacity="0.4"/>
</g>
<g opacity="0.75835">
<path d="M220.604 887.645C220.604 886.736 221.341 885.999 222.25 885.999C223.159 885.999 223.896 886.736 223.896 887.645C223.896 888.554 223.159 889.291 222.25 889.291C221.341 889.291 220.604 888.554 220.604 887.645Z" fill="white" fill-opacity="0.4"/>
</g>
<g opacity="0.329308">
<path d="M1341.38 395.511C1341.38 395.168 1341.66 394.889 1342.01 394.889C1342.35 394.889 1342.63 395.168 1342.63 395.511C1342.63 395.855 1342.35 396.134 1342.01 396.134C1341.66 396.134 1341.38 395.855 1341.38 395.511Z" fill="white" fill-opacity="0.4"/>
</g>
<g opacity="0.708066">
<path d="M840.408 370.205C840.408 369.413 841.05 368.771 841.841 368.771C842.633 368.771 843.275 369.413 843.275 370.205C843.275 370.996 842.633 371.638 841.841 371.638C841.05 371.638 840.408 370.996 840.408 370.205Z" fill="white" fill-opacity="0.4"/>
</g>
<g opacity="0.365752">
<path d="M436.687 546.833C436.687 546.124 437.262 545.549 437.971 545.549C438.681 545.549 439.256 546.124 439.256 546.833C439.256 547.542 438.681 548.117 437.971 548.117C437.262 548.117 436.687 547.542 436.687 546.833Z" fill="white" fill-opacity="0.4"/>
</g>
<g opacity="0.750394">
<path d="M1120.48 817.826C1120.48 817.371 1120.84 817.002 1121.3 817.002C1121.75 817.002 1122.12 817.371 1122.12 817.826C1122.12 818.282 1121.75 818.651 1121.3 818.651C1120.84 818.651 1120.48 818.282 1120.48 817.826Z" fill="white" fill-opacity="0.4"/>
</g>
<g opacity="0.231322">
<path d="M552.792 421.402C552.792 421.086 553.049 420.83 553.365 420.83C553.681 420.83 553.937 421.086 553.937 421.402C553.937 421.718 553.681 421.974 553.365 421.974C553.049 421.974 552.792 421.718 552.792 421.402Z" fill="white" fill-opacity="0.4"/>
</g>
<g opacity="0.252262">
<path d="M1283.49 682.625C1283.49 681.984 1284.01 681.465 1284.65 681.465C1285.29 681.465 1285.81 681.984 1285.81 682.625C1285.81 683.265 1285.29 683.785 1284.65 683.785C1284.01 683.785 1283.49 683.265 1283.49 682.625Z" fill="white" fill-opacity="0.4"/>
</g>
</g>
</g>
<defs>
<filter id="filter0_f_10779_4616" x="-331.047" y="-274.749" width="2196.29" height="2173.35" filterUnits="userSpaceOnUse" color-interpolation-filters="sRGB">
<feFlood flood-opacity="0" result="BackgroundImageFix"/>
<feBlend mode="normal" in="SourceGraphic" in2="BackgroundImageFix" result="shape"/>
<feGaussianBlur stdDeviation="250" result="effect1_foregroundBlur_10779_4616"/>
</filter>
<filter id="filter1_f_10779_4616" x="115.742" y="-92.0908" width="1551.03" height="1808.03" filterUnits="userSpaceOnUse" color-interpolation-filters="sRGB">
<feFlood flood-opacity="0" result="BackgroundImageFix"/>
<feBlend mode="normal" in="SourceGraphic" in2="BackgroundImageFix" result="shape"/>
<feGaussianBlur stdDeviation="250" result="effect1_foregroundBlur_10779_4616"/>
</filter>
<filter id="filter2_f_10779_4616" x="58.6587" y="211.667" width="1045.08" height="1252.66" filterUnits="userSpaceOnUse" color-interpolation-filters="sRGB">
<feFlood flood-opacity="0" result="BackgroundImageFix"/>
<feBlend mode="normal" in="SourceGraphic" in2="BackgroundImageFix" result="shape"/>
<feGaussianBlur stdDeviation="150" result="effect1_foregroundBlur_10779_4616"/>
</filter>
<radialGradient id="paint0_radial_10779_4616" cx="0" cy="0" r="1" gradientTransform="matrix(954.265 -912.565 -572.899 -268.015 459.74 1239.18)" gradientUnits="userSpaceOnUse">
<stop stop-color="#4901AA"/>
<stop offset="1" stop-color="#1D0044"/>
</radialGradient>
<clipPath id="clip0_10779_4616">
<rect width="1440" height="900" fill="white"/>
</clipPath>
<clipPath id="clip1_10779_4616">
<rect width="1440" height="939" fill="white"/>
</clipPath>
</defs>
</svg>
