<?xml version="1.0" encoding="UTF-8"?>
<svg width="151px" height="51px" viewBox="0 0 151 51" version="1.1" xmlns="http://www.w3.org/2000/svg" xmlns:xlink="http://www.w3.org/1999/xlink">
    <!-- Generator: Sketch 61.2 (89653) - https://sketch.com -->
    <title>ll logo - white</title>
    <desc>Created with Sketch.</desc>
    <g id="Key-Pages" stroke="none" stroke-width="1" fill="none" fill-rule="evenodd">
        <g id="Desktop:-homepage-04" transform="translate(-240.000000, -268.000000)" fill="#FFFFFF">
            <g id="SR-Nav-Dropdown-01" transform="translate(120.000000, 130.000000)">
                <g id="navbar">
                    <g id="primary">
                        <g id="ll-logo---white" transform="translate(120.000000, 137.000000)">
                            <g id="logo">
                                <path d="M24.8394219,1.60606061 C38.5578558,1.60606061 49.6788438,12.7989419 49.6788438,26.6060606 C49.6788438,40.4131794 38.5578558,51.6060606 24.8394219,51.6060606 C11.120988,51.6060606 0,40.4131794 0,26.6060606 C0,12.7989419 11.120988,1.60606061 24.8394219,1.60606061 Z M26.2932406,17.2310606 C26.2825328,17.7399495 26.2718251,18.2486228 26.260689,18.7572961 C26.260689,20.7344403 26.5587929,23.3513058 25.4869466,24.2768326 C24.374625,25.2368457 20.5468168,25.4965708 19.6482219,24.1468622 C19.0246023,23.2105585 19.2775195,20.9036388 19.2933669,19.4067167 L19.2933669,19.4067167 L13.1959429,19.4067167 L13.1959429,25.5431274 C14.9804974,25.5243754 17.7199694,25.2038681 18.5189821,26.2244479 C19.2081332,27.1047113 19.3539728,31.4599032 18.3579375,32.0688024 C17.9501861,32.3179661 14.7879719,32.175279 14.0026652,32.1660108 L14.0026652,32.1660108 L13.9705419,37.0691042 C15.5938376,37.0796656 17.2177757,37.0906582 18.8414997,37.1012196 C18.8310061,35.961662 18.5984336,33.0018731 19.0672192,32.3610741 C19.7516589,31.4247703 23.9846486,31.7607964 25.7126661,31.7765308 C25.6970328,29.3542975 25.2404541,25.5241599 26.6480956,24.4714648 C27.6017283,23.7580289 32.4253578,23.7026353 33.0352715,24.698859 C33.3293065,25.1792966 33.1727591,28.3791966 33.164407,29.2769188 L33.164407,29.2769188 L38.0353648,29.2769188 L38.0353648,24.3740409 C36.868862,24.3839557 34.2156944,24.6046682 33.5515995,24.1143158 C32.6395129,23.4411858 32.9887998,18.9767153 33.0031482,17.2638226 L33.0031482,17.2638226 Z" id="Combined-Shape"></path>
                                <g id="Page-1" transform="translate(58.446809, 0.000000)" fill-rule="nonzero">
                                    <path d="M8.2546875,36.7889297 C8.3765625,36.7889297 8.465625,36.7537735 8.521875,36.683461 C8.578125,36.6131485 8.60625,36.4608047 8.60625,36.2264297 L8.60625,36.2264297 L8.60625,35.1014297 C8.60625,34.8670547 8.578125,34.7170547 8.521875,34.6514297 C8.465625,34.5858047 8.3765625,34.5529922 8.2546875,34.5529922 L8.2546875,34.5529922 L4.5984375,34.5529922 C4.4671875,34.5529922 4.4015625,34.4498672 4.4015625,34.2436172 L4.4015625,34.2436172 L4.4015625,17.2279922 C4.4015625,16.9467422 4.3734375,16.7662735 4.3171875,16.686586 C4.2609375,16.6068985 4.171875,16.5670547 4.05,16.5670547 L4.05,16.5670547 L1.9828125,16.5670547 C1.8609375,16.5670547 1.771875,16.6068985 1.715625,16.686586 C1.659375,16.7662735 1.63125,16.9467422 1.63125,17.2279922 L1.63125,17.2279922 L1.63125,36.1279922 C1.63125,36.4092422 1.659375,36.589711 1.715625,36.6693985 C1.771875,36.749086 1.8609375,36.7889297 1.9828125,36.7889297 L1.9828125,36.7889297 L8.2546875,36.7889297 Z M18.590625,36.7889297 C18.7125,36.7889297 18.8039062,36.7537735 18.8648437,36.683461 C18.9257812,36.6131485 18.95625,36.4608047 18.95625,36.2264297 L18.95625,36.2264297 L18.95625,35.1154922 C18.95625,34.9467422 18.9398438,34.8201797 18.9070313,34.7358047 C18.8742187,34.6514297 18.834375,34.5998672 18.7875,34.5811172 C18.740625,34.5623672 18.675,34.5529922 18.590625,34.5529922 L18.590625,34.5529922 L13.5703125,34.5529922 L13.5703125,28.1264297 C13.5703125,28.0326797 13.5867187,27.9389297 13.6195312,27.8451797 C13.6523438,27.7514297 13.6875,27.7045547 13.725,27.7045547 L13.725,27.7045547 L17.578125,27.7045547 C17.8125,27.7045547 17.9296875,27.4889297 17.9296875,27.0576797 L17.9296875,27.0576797 L17.9296875,25.9748672 C17.9296875,25.5436172 17.8125,25.3279922 17.578125,25.3279922 L17.578125,25.3279922 L13.7109375,25.3279922 C13.6828125,25.3279922 13.6523438,25.2858047 13.6195312,25.2014297 C13.5867187,25.1170547 13.5703125,25.0326797 13.5703125,24.9483047 L13.5703125,24.9483047 L13.5703125,19.2670547 C13.5703125,18.9576797 13.6265625,18.8029922 13.7390625,18.8029922 L13.7390625,18.8029922 L18.5484375,18.8029922 C18.6703125,18.8029922 18.759375,18.767836 18.815625,18.6975235 C18.871875,18.627211 18.9,18.4748672 18.9,18.2404922 L18.9,18.2404922 L18.9,17.1295547 C18.9,16.9608047 18.8835938,16.8342422 18.8507812,16.7498672 C18.8179687,16.6654922 18.778125,16.6139297 18.73125,16.5951797 C18.684375,16.5764297 18.6234375,16.5670547 18.5484375,16.5670547 L18.5484375,16.5670547 L11.1515625,16.5670547 C11.0296875,16.5670547 10.940625,16.6045547 10.884375,16.6795547 C10.828125,16.7545547 10.8,16.9139297 10.8,17.1576797 L10.8,17.1576797 L10.8,36.1983047 C10.8,36.4514297 10.828125,36.6131485 10.884375,36.683461 C10.940625,36.7537735 11.0296875,36.7889297 11.1515625,36.7889297 L11.1515625,36.7889297 L18.590625,36.7889297 Z M22.5,36.7889297 C22.6125,36.7889297 22.696875,36.749086 22.753125,36.6693985 C22.809375,36.589711 22.85625,36.4326797 22.89375,36.1983047 L22.89375,36.1983047 L23.484375,32.6404922 C23.521875,32.4248672 23.5734375,32.3170547 23.6390625,32.3170547 L23.6390625,32.3170547 L27.0421875,32.3170547 C27.1171875,32.3170547 27.16875,32.4201797 27.196875,32.6264297 L27.196875,32.6264297 L27.7171875,36.2123672 C27.7828125,36.5967422 27.928125,36.7889297 28.153125,36.7889297 L28.153125,36.7889297 L30.4734375,36.7889297 C30.6328125,36.7889297 30.7125,36.6576797 30.7125,36.3951797 C30.7125,36.3576797 30.7101563,36.3108047 30.7054688,36.2545547 C30.7007813,36.1983047 30.6914063,36.1326797 30.6773438,36.0576797 C30.6632813,35.9826797 30.65625,35.9311172 30.65625,35.9029922 L30.65625,35.9029922 L27.5484375,17.2701797 C27.4734375,16.8201797 27.3046875,16.5858047 27.0421875,16.5670547 L27.0421875,16.5670547 L24.1875,16.5670547 C23.915625,16.5858047 23.7421875,16.8201797 23.6671875,17.2701797 L23.6671875,17.2701797 L20.503125,35.9029922 C20.49375,35.9404922 20.4890625,36.0201797 20.4890625,36.1420547 L20.4890625,36.3811172 C20.4890625,36.6529922 20.559375,36.7889297 20.7,36.7889297 L20.7,36.7889297 L22.5,36.7889297 Z M26.915625,30.5592422 L24.046875,30.5592422 C23.90625,30.5592422 23.8359375,30.4701797 23.8359375,30.2920547 C23.8359375,30.2733047 23.840625,30.2311172 23.85,30.1654922 L23.85,30.1654922 L25.4953125,19.3233047 C25.5046875,19.2670547 25.5234375,19.2389297 25.5515625,19.2389297 C25.5703125,19.2389297 25.584375,19.2717422 25.59375,19.3373672 L25.59375,19.3373672 L26.9859375,30.1795547 C27.0046875,30.2076797 27.0140625,30.2498672 27.0140625,30.3061172 C27.0140625,30.4748672 26.98125,30.5592422 26.915625,30.5592422 L26.915625,30.5592422 Z M42.8625,36.8029922 C42.984375,36.8029922 43.0734375,36.7631485 43.1296875,36.683461 C43.1859375,36.6037735 43.2140625,36.4233047 43.2140625,36.1420547 L43.2140625,36.1420547 L43.2140625,17.3123672 C43.2140625,16.8154922 43.096875,16.5670547 42.8625,16.5670547 L42.8625,16.5670547 L41.1890625,16.5670547 C40.9359375,16.5670547 40.809375,16.8154922 40.809375,17.3123672 L40.809375,17.3123672 L40.809375,29.7436172 L40.7953125,29.8701797 C40.7578125,29.9733047 40.7296875,29.9920547 40.7109375,29.9264297 L40.7109375,29.9264297 L35.94375,17.1154922 C35.803125,16.7498672 35.634375,16.5670547 35.4375,16.5670547 L35.4375,16.5670547 L33.3,16.5670547 C33.05625,16.5670547 32.934375,16.8154922 32.934375,17.3123672 L32.934375,17.3123672 L32.934375,36.0858047 C32.934375,36.3670547 32.9648438,36.5545547 33.0257813,36.6483047 C33.0867188,36.7420547 33.178125,36.7889297 33.3,36.7889297 L33.3,36.7889297 L35.0015625,36.7889297 C35.1328125,36.7889297 35.2289063,36.7420547 35.2898438,36.6483047 C35.3507813,36.5545547 35.38125,36.3670547 35.38125,36.0858047 L35.38125,36.0858047 L35.38125,22.5436172 C35.38125,22.5061172 35.3859375,22.4733047 35.3953125,22.4451797 C35.4140625,22.3233047 35.4421875,22.2998672 35.4796875,22.3748672 L35.4796875,22.3748672 L40.78125,36.2123672 C40.846875,36.3811172 40.9335938,36.5217422 41.0414063,36.6342422 C41.1492188,36.7467422 41.25,36.8029922 41.34375,36.8029922 L41.34375,36.8029922 L42.8625,36.8029922 Z M56.7703125,36.7889297 C56.8921875,36.7889297 56.98125,36.7537735 57.0375,36.683461 C57.09375,36.6131485 57.121875,36.4608047 57.121875,36.2264297 L57.121875,36.2264297 L57.121875,35.1014297 C57.121875,34.8670547 57.09375,34.7170547 57.0375,34.6514297 C56.98125,34.5858047 56.8921875,34.5529922 56.7703125,34.5529922 L56.7703125,34.5529922 L53.1140625,34.5529922 C52.9828125,34.5529922 52.9171875,34.4498672 52.9171875,34.2436172 L52.9171875,34.2436172 L52.9171875,17.2279922 C52.9171875,16.9467422 52.8890625,16.7662735 52.8328125,16.686586 C52.7765625,16.6068985 52.6875,16.5670547 52.565625,16.5670547 L52.565625,16.5670547 L50.4984375,16.5670547 C50.3765625,16.5670547 50.2875,16.6068985 50.23125,16.686586 C50.175,16.7662735 50.146875,16.9467422 50.146875,17.2279922 L50.146875,17.2279922 L50.146875,36.1279922 C50.146875,36.4092422 50.175,36.589711 50.23125,36.6693985 C50.2875,36.749086 50.3765625,36.7889297 50.4984375,36.7889297 L50.4984375,36.7889297 L56.7703125,36.7889297 Z M60.440625,36.7889297 C60.553125,36.7889297 60.6375,36.749086 60.69375,36.6693985 C60.75,36.589711 60.796875,36.4326797 60.834375,36.1983047 L60.834375,36.1983047 L61.425,32.6404922 C61.4625,32.4248672 61.5140625,32.3170547 61.5796875,32.3170547 L61.5796875,32.3170547 L64.9828125,32.3170547 C65.0578125,32.3170547 65.109375,32.4201797 65.1375,32.6264297 L65.1375,32.6264297 L65.6578125,36.2123672 C65.7234375,36.5967422 65.86875,36.7889297 66.09375,36.7889297 L66.09375,36.7889297 L68.4140625,36.7889297 C68.5734375,36.7889297 68.653125,36.6576797 68.653125,36.3951797 C68.653125,36.3576797 68.6507813,36.3108047 68.6460938,36.2545547 C68.6414063,36.1983047 68.6320313,36.1326797 68.6179688,36.0576797 C68.6039063,35.9826797 68.596875,35.9311172 68.596875,35.9029922 L68.596875,35.9029922 L65.4890625,17.2701797 C65.4140625,16.8201797 65.2453125,16.5858047 64.9828125,16.5670547 L64.9828125,16.5670547 L62.128125,16.5670547 C61.85625,16.5858047 61.6828125,16.8201797 61.6078125,17.2701797 L61.6078125,17.2701797 L58.44375,35.9029922 C58.434375,35.9404922 58.4296875,36.0201797 58.4296875,36.1420547 L58.4296875,36.1420547 L58.4296875,36.3811172 C58.4296875,36.6529922 58.5,36.7889297 58.640625,36.7889297 L58.640625,36.7889297 L60.440625,36.7889297 Z M64.85625,30.5592422 L61.9875,30.5592422 C61.846875,30.5592422 61.7765625,30.4701797 61.7765625,30.2920547 C61.7765625,30.2733047 61.78125,30.2311172 61.790625,30.1654922 L61.790625,30.1654922 L63.4359375,19.3233047 C63.4453125,19.2670547 63.4640625,19.2389297 63.4921875,19.2389297 C63.5109375,19.2389297 63.525,19.2717422 63.534375,19.3373672 L63.534375,19.3373672 L64.9265625,30.1795547 C64.9453125,30.2076797 64.9546875,30.2498672 64.9546875,30.3061172 C64.9546875,30.4748672 64.921875,30.5592422 64.85625,30.5592422 L64.85625,30.5592422 Z M76.134375,36.7889297 C76.875,36.7889297 77.5265625,36.692836 78.0890625,36.5006485 C78.6515625,36.308461 79.1507813,35.989711 79.5867188,35.5443985 C80.0226563,35.099086 80.3554688,34.4826797 80.5851563,33.6951797 C80.8148438,32.9076797 80.9296875,31.9514297 80.9296875,30.8264297 C80.9296875,28.5389297 80.34375,26.9779922 79.171875,26.1436172 C79.078125,26.0498672 79.03125,25.9889297 79.03125,25.9608047 C79.03125,25.9326797 79.0734375,25.8764297 79.1578125,25.7920547 C79.9921875,25.0983047 80.409375,23.8842422 80.409375,22.1498672 C80.409375,18.4279922 79.0734375,16.5670547 76.4015625,16.5670547 L76.4015625,16.5670547 L71.2546875,16.5670547 C71.1234375,16.5670547 71.0273438,16.6045547 70.9664063,16.6795547 C70.9054687,16.7545547 70.875,16.9279922 70.875,17.1998672 L70.875,17.1998672 L70.875,36.1701797 C70.875,36.4326797 70.9054687,36.6014297 70.9664063,36.6764297 C71.0273438,36.7514297 71.1234375,36.7889297 71.2546875,36.7889297 L71.2546875,36.7889297 L76.134375,36.7889297 Z M76.1765625,25.0748672 L73.8421875,25.0748672 C73.7109375,25.0748672 73.6453125,24.9811172 73.6453125,24.7936172 L73.6453125,24.7936172 L73.6453125,19.0701797 C73.6453125,18.8639297 73.7109375,18.7608047 73.8421875,18.7608047 L73.8421875,18.7608047 L75.6421875,18.7608047 C76.3359375,18.7608047 76.8820312,19.0537735 77.2804687,19.639711 C77.6789062,20.2256485 77.878125,21.0904922 77.878125,22.2342422 C77.878125,23.1061172 77.7234375,23.7975235 77.4140625,24.308461 C77.1046875,24.8193985 76.6921875,25.0748672 76.1765625,25.0748672 L76.1765625,25.0748672 Z M75.628125,34.6795547 L73.8421875,34.6795547 C73.7109375,34.6795547 73.6453125,34.5858047 73.6453125,34.3983047 L73.6453125,34.3983047 L73.6453125,27.5076797 C73.6453125,27.2826797 73.7109375,27.1701797 73.8421875,27.1701797 L73.8421875,27.1701797 L76.078125,27.1701797 C76.70625,27.1701797 77.221875,27.5123672 77.625,28.1967422 C78.028125,28.8811172 78.2296875,29.7529922 78.2296875,30.8123672 C78.2296875,32.0029922 78.0023437,32.9451797 77.5476562,33.6389297 C77.0929687,34.3326797 76.453125,34.6795547 75.628125,34.6795547 L75.628125,34.6795547 Z M87.1489617,36.9998672 C88.6208367,36.9998672 89.7927117,36.4561172 90.6645867,35.3686172 C91.5364617,34.2811172 91.9723992,32.8795547 91.9723992,31.1639297 C91.9723992,28.8201797 91.0302117,27.0389297 89.1458367,25.8201797 L89.1458367,25.8201797 L87.3598992,24.6670547 C86.7317742,24.2639297 86.2489617,23.8279922 85.9114617,23.3592422 C85.5739617,22.8904922 85.4052117,22.2858047 85.4052117,21.5451797 C85.4052117,20.7576797 85.6020867,20.089711 85.9958367,19.5412735 C86.3895867,18.992836 86.9098992,18.7186172 87.5567742,18.7186172 C88.7098992,18.7186172 89.7036492,19.2248672 90.5380242,20.2373672 C90.5661492,20.2748672 90.6083367,20.2936172 90.6645867,20.2936172 C90.8520867,20.2936172 91.084118,20.1108047 91.3606805,19.7451797 C91.637243,19.3795547 91.7755242,19.0326797 91.7755242,18.7045547 C91.7755242,18.5358047 91.7286492,18.3904922 91.6348992,18.2686172 C90.6505242,16.9842422 89.2770867,16.3420547 87.5145867,16.3420547 C86.1364617,16.3420547 85.037243,16.8670547 84.2169305,17.9170547 C83.396618,18.9670547 82.9864617,20.3358047 82.9864617,22.0233047 C82.9864617,22.6701797 83.059118,23.2631485 83.2044305,23.802211 C83.349743,24.3412735 83.555993,24.8100235 83.8231805,25.208461 C84.090368,25.6068985 84.3692742,25.9467422 84.6598992,26.2279922 C84.9505242,26.5092422 85.2927117,26.7811172 85.6864617,27.0436172 L85.6864617,27.0436172 L87.4864617,28.2529922 C88.1614617,28.6936172 88.6630242,29.1600235 88.9911492,29.652211 C89.3192742,30.1443985 89.4833367,30.7842422 89.4833367,31.5717422 C89.4833367,32.4436172 89.2770867,33.1631485 88.8645867,33.730336 C88.4520867,34.2975235 87.8802117,34.5811172 87.1489617,34.5811172 C85.9583367,34.5811172 84.8380242,33.9108047 83.7880242,32.5701797 C83.7130242,32.4858047 83.6286492,32.4436172 83.5348992,32.4436172 C83.2911492,32.4436172 83.0356805,32.6381485 82.768493,33.027211 C82.5013055,33.4162735 82.3677117,33.7748672 82.3677117,34.1029922 C82.3677117,34.2342422 82.3958367,34.3420547 82.4520867,34.4264297 C83.5958367,36.1420547 85.1614617,36.9998672 87.1489617,36.9998672 Z" id="LEANLABS"></path>
                                </g>
                            </g>
                        </g>
                    </g>
                </g>
            </g>
        </g>
    </g>
</svg>