<svg width="1440" height="982" viewBox="0 0 1440 982" fill="none" xmlns="http://www.w3.org/2000/svg">
<g opacity="0.6">
<mask id="mask0_8633_12000" style="mask-type:alpha" maskUnits="userSpaceOnUse" x="0" y="0" width="1440" height="982">
<rect width="1440" height="981.894" fill="white"/>
<rect width="1440" height="981.894" fill="url(#paint0_linear_8633_12000)"/>
</mask>
<g mask="url(#mask0_8633_12000)">
<g opacity="0.8">
<g filter="url(#filter0_f_8633_12000)">
<path d="M10.7799 211.437C178.53 184.223 304.549 73.5656 329.062 291.419C353.575 509.273 237.459 707.939 69.7086 735.153C-98.0419 762.368 80.2708 642.669 -303.298 394.007C-327.811 176.154 -156.971 238.651 10.7799 211.437Z" fill="#FABFA7"/>
</g>
<g filter="url(#filter1_f_8633_12000)">
<path d="M41.9461 625.248C167.69 458.867 395.827 965.411 657.78 599.461C372.014 867.156 564.692 677.496 438.948 843.876C313.204 1010.26 258.77 1276.54 202.42 1201.98C146.07 1127.42 -83.7981 791.628 41.9461 625.248Z" fill="#A643F2"/>
</g>
<g filter="url(#filter2_f_8633_12000)">
<path d="M-14.8725 772.923C48.9203 688.515 164.659 945.495 297.553 759.841C152.578 895.649 250.328 799.43 186.535 883.838C122.742 968.247 95.127 1103.34 66.5395 1065.51C37.9519 1027.68 -78.6652 857.332 -14.8725 772.923Z" fill="#00A8DA"/>
</g>
</g>
</g>
</g>
<defs>
<filter id="filter0_f_8633_12000" x="-432" y="32.8356" width="890.673" height="832.457" filterUnits="userSpaceOnUse" color-interpolation-filters="sRGB">
<feFlood flood-opacity="0" result="BackgroundImageFix"/>
<feBlend mode="normal" in="SourceGraphic" in2="BackgroundImageFix" result="shape"/>
<feGaussianBlur stdDeviation="63.172" result="effect1_foregroundBlur_8633_12000"/>
</filter>
<filter id="filter1_f_8633_12000" x="-121.47" y="464.238" width="905.594" height="876.965" filterUnits="userSpaceOnUse" color-interpolation-filters="sRGB">
<feFlood flood-opacity="0" result="BackgroundImageFix"/>
<feBlend mode="normal" in="SourceGraphic" in2="BackgroundImageFix" result="shape"/>
<feGaussianBlur stdDeviation="63.172" result="effect1_foregroundBlur_8633_12000"/>
</filter>
<filter id="filter2_f_8633_12000" x="-160.024" y="628.993" width="583.921" height="569.396" filterUnits="userSpaceOnUse" color-interpolation-filters="sRGB">
<feFlood flood-opacity="0" result="BackgroundImageFix"/>
<feBlend mode="normal" in="SourceGraphic" in2="BackgroundImageFix" result="shape"/>
<feGaussianBlur stdDeviation="63.172" result="effect1_foregroundBlur_8633_12000"/>
</filter>
<linearGradient id="paint0_linear_8633_12000" x1="25.2" y1="34.9896" x2="1549.16" y2="705.269" gradientUnits="userSpaceOnUse">
<stop stop-color="#8F94FB"/>
<stop offset="1" stop-color="#4E54C8"/>
</linearGradient>
</defs>
</svg>
